HIERARCHY
ROOT Hips
{
  OFFSET 5.80788e-005 67.184 3.4734
  CHANNELS 6 Xposition Yposition Zposition Zrotation Xrotation Yrotation
  JOINT Chest
  {
    OFFSET 0 8.7983 -4.7612
    CHANNELS 3 Zrotation Xrotation Yrotation
    JOINT Chest2
    {
      OFFSET 0 8.0291 0.4195
      CHANNELS 3 Zrotation Xrotation Yrotation
      JOINT Chest3
      {
        OFFSET 0 9.9351 -2.2114
        CHANNELS 3 Zrotation Xrotation Yrotation
        JOINT Neck
        {
          OFFSET 0 22.3885 -0.4656
          CHANNELS 3 Zrotation Xrotation Yrotation
          JOINT Head
          {
            OFFSET -0.0001 12.643 3.4389
            CHANNELS 3 Zrotation Xrotation Yrotation
            End Site
            {
              OFFSET 0.0001 17.6655 0.5274
            }
          }
        }
        JOINT LeftCollar
        {
          OFFSET 2.2603 21.606 7.4023
          CHANNELS 3 Zrotation Xrotation Yrotation
          JOINT LeftShoulder
          {
            OFFSET 13.5163 -1.1332 -5.0146
            CHANNELS 3 Zrotation Xrotation Yrotation
            JOINT LeftElbow
            {
              OFFSET -0.0995 -28.05 -0.2431
              CHANNELS 3 Zrotation Xrotation Yrotation
              JOINT LeftWrist
              {
                OFFSET 0.0679 -23.3996 -0.1402
                CHANNELS 3 Zrotation Xrotation Yrotation
                JOINT LeftFinger1
                {
                  OFFSET 0.7932 -9.069 2.5189
                  CHANNELS 3 Zrotation Xrotation Yrotation
                  JOINT LeftFinger11
                  {
                    OFFSET -0.8272 -3.3923 0.5977
                    CHANNELS 3 Zrotation Xrotation Yrotation
                    JOINT LeftFinger12
                    {
                      OFFSET -0.5649 -2.3158 0.4082
                      CHANNELS 3 Zrotation Xrotation Yrotation
                      End Site
                      {
                        OFFSET -0.4919 -1.6479 0.2673
                      }
                    }
                  }
                }
                JOINT LeftFinger2
                {
                  OFFSET 0.9159 -9.2044 0.2193
                  CHANNELS 3 Zrotation Xrotation Yrotation
                  JOINT LeftFinger21
                  {
                    OFFSET 0.0117 -4.1944 -0.0248
                    CHANNELS 3 Zrotation Xrotation Yrotation
                    JOINT LeftFinger22
                    {
                      OFFSET 0.0071 -2.3249 -0.0142
                      CHANNELS 3 Zrotation Xrotation Yrotation
                      End Site
                      {
                        OFFSET -0.1475 -2.0882 0.0028
                      }
                    }
                  }
                }
                JOINT LeftFinger3
                {
                  OFFSET 0.6113 -8.7231 -2.0637
                  CHANNELS 3 Zrotation Xrotation Yrotation
                  JOINT LeftFinger31
                  {
                    OFFSET -0.1927 -3.8059 -0.2383
                    CHANNELS 3 Zrotation Xrotation Yrotation
                    JOINT LeftFinger32
                    {
                      OFFSET -0.1091 -2.1688 -0.1362
                      CHANNELS 3 Zrotation Xrotation Yrotation
                      End Site
                      {
                        OFFSET -0.2358 -1.9176 -0.0906
                      }
                    }
                  }
                }
                JOINT LeftFinger4
                {
                  OFFSET -0.6151 -8.0947 -3.5641
                  CHANNELS 3 Zrotation Xrotation Yrotation
                  JOINT LeftFinger41
                  {
                    OFFSET -0.4882 -2.341 -0.6462
                    CHANNELS 3 Zrotation Xrotation Yrotation
                    JOINT LeftFinger42
                    {
                      OFFSET -0.3575 -1.7167 -0.4742
                      CHANNELS 3 Zrotation Xrotation Yrotation
                      End Site
                      {
                        OFFSET -0.4187 -1.5237 -0.3496
                      }
                    }
                  }
                }
                JOINT LeftFinger0
                {
                  OFFSET -1.42 -1.8761 1.4223
                  CHANNELS 3 Zrotation Xrotation Yrotation
                  JOINT LeftFinger01
                  {
                    OFFSET -1.1471 -3.4929 2.6334
                    CHANNELS 3 Zrotation Xrotation Yrotation
                    JOINT LeftFinger02
                    {
                      OFFSET -0.823 -2.3 1.6571
                      CHANNELS 3 Zrotation Xrotation Yrotation
                      End Site
                      {
                        OFFSET -0.5822 -1.6914 1.1582
                      }
                    }
                  }
                }
              }
            }
          }
        }
        JOINT RightCollar
        {
          OFFSET -2.2603 21.606 7.4023
          CHANNELS 3 Zrotation Xrotation Yrotation
          JOINT RightShoulder
          {
            OFFSET -13.5187 -1.1334 -5.0155
            CHANNELS 3 Zrotation Xrotation Yrotation
            JOINT RightElbow
            {
              OFFSET 0.0994 -28.0499 -0.2431
              CHANNELS 3 Zrotation Xrotation Yrotation
              JOINT RightWrist
              {
                OFFSET -0.0679 -23.3996 -0.1402
                CHANNELS 3 Zrotation Xrotation Yrotation
                JOINT RightFinger1
                {
                  OFFSET -0.7932 -9.0691 2.5189
                  CHANNELS 3 Zrotation Xrotation Yrotation
                  JOINT RightFinger11
                  {
                    OFFSET 0.8272 -3.3923 0.5977
                    CHANNELS 3 Zrotation Xrotation Yrotation
                    JOINT RightFinger12
                    {
                      OFFSET 0.565 -2.3158 0.4082
                      CHANNELS 3 Zrotation Xrotation Yrotation
                      End Site
                      {
                        OFFSET 0.4919 -1.6479 0.2673
                      }
                    }
                  }
                }
                JOINT RightFinger2
                {
                  OFFSET -0.916 -9.2044 0.2193
                  CHANNELS 3 Zrotation Xrotation Yrotation
                  JOINT RightFinger21
                  {
                    OFFSET -0.0117 -4.1944 -0.0248
                    CHANNELS 3 Zrotation Xrotation Yrotation
                    JOINT RightFinger22
                    {
                      OFFSET -0.0071 -2.3249 -0.0142
                      CHANNELS 3 Zrotation Xrotation Yrotation
                      End Site
                      {
                        OFFSET 0.1475 -2.0882 0.0028
                      }
                    }
                  }
                }
                JOINT RightFinger3
                {
                  OFFSET -0.6113 -8.7231 -2.0637
                  CHANNELS 3 Zrotation Xrotation Yrotation
                  JOINT RightFinger31
                  {
                    OFFSET 0.1927 -3.8059 -0.2383
                    CHANNELS 3 Zrotation Xrotation Yrotation
                    JOINT RightFinger32
                    {
                      OFFSET 0.1091 -2.1688 -0.1362
                      CHANNELS 3 Zrotation Xrotation Yrotation
                      End Site
                      {
                        OFFSET 0.2358 -1.9176 -0.0906
                      }
                    }
                  }
                }
                JOINT RightFinger4
                {
                  OFFSET 0.6151 -8.0947 -3.564
                  CHANNELS 3 Zrotation Xrotation Yrotation
                  JOINT RightFinger41
                  {
                    OFFSET 0.4882 -2.341 -0.6462
                    CHANNELS 3 Zrotation Xrotation Yrotation
                    JOINT RightFinger42
                    {
                      OFFSET 0.3574 -1.7166 -0.4742
                      CHANNELS 3 Zrotation Xrotation Yrotation
                      End Site
                      {
                        OFFSET 0.4187 -1.5237 -0.3496
                      }
                    }
                  }
                }
                JOINT RightFinger0
                {
                  OFFSET 1.4199 -1.8761 1.4221
                  CHANNELS 3 Zrotation Xrotation Yrotation
                  JOINT RightFinger01
                  {
                    OFFSET 1.1472 -3.4929 2.6336
                    CHANNELS 3 Zrotation Xrotation Yrotation
                    JOINT RightFinger02
                    {
                      OFFSET 0.8229 -2.3 1.6571
                      CHANNELS 3 Zrotation Xrotation Yrotation
                      End Site
                      {
                        OFFSET 0.5822 -1.6914 1.1582
                      }
                    }
                  }
                }
              }
            }
          }
        }
      }
    }
  }
  JOINT RightHip
  {
    OFFSET -9.412 3.9771 -0.7758
    CHANNELS 3 Zrotation Xrotation Yrotation
    JOINT RightKnee
    {
      OFFSET -0.7531 -40.938 0
      CHANNELS 3 Zrotation Xrotation Yrotation
      JOINT RightAnkle
      {
        OFFSET 0 -40.1986 0
        CHANNELS 3 Zrotation Xrotation Yrotation
        JOINT RightToe
        {
          OFFSET 0 -4.4182 9.239
          CHANNELS 3 Zrotation Xrotation Yrotation
          End Site
          {
            OFFSET 0 0 6.1981
          }
        }
      }
    }
  }
  JOINT LeftHip
  {
    OFFSET 9.4119 3.9773 -0.7758
    CHANNELS 3 Zrotation Xrotation Yrotation
    JOINT LeftKnee
    {
      OFFSET 0.7532 -40.9383 0
      CHANNELS 3 Zrotation Xrotation Yrotation
      JOINT LeftAnkle
      {
        OFFSET 0 -40.1986 0
        CHANNELS 3 Zrotation Xrotation Yrotation
        JOINT LeftToe
        {
          OFFSET 0 -4.4182 9.239
          CHANNELS 3 Zrotation Xrotation Yrotation
          End Site
          {
            OFFSET 0 0 6.1981
          }
        }
      }
    }
  }
}
MOTION
Frames:	5
Frame Time:	0.0333333
5.80788e-005 67.184 3.4734 0 0 -0 0 0 -0 0 0 -0 0 0 -0 0 0 -0 0 0 -0 0 0 -12.5014 88.1196 14.2451 10.6914 -0.00160068 -0.00239207 0.000740045 -8.4365e-005 7.00714e-005 -9.52055e-007 9.93923e-017 -1.98785e-016 -1.59028e-015 9.93923e-017 -5.96354e-016 -1.59028e-015 -9.93923e-017 -5.96354e-016 -1.59028e-015 9.93923e-017 -1.98785e-016 -1.59028e-015 -0.0128176 0.00232552 8.52707e-005 9.93923e-017 5.96354e-016 -0 9.93923e-017 -1.98785e-016 -1.59028e-015 -0.0160551 0.00299681 0.000857156 -2.48481e-016 0 3.18055e-015 9.93923e-017 -1.98785e-016 -1.59028e-015 -0.0125865 0.0031206 0.00282719 0 1.98785e-016 -0 9.93923e-017 -1.98785e-016 -1.59028e-015 9.93923e-017 -5.96354e-016 -1.59028e-015 -9.93923e-017 -5.96354e-016 -1.59028e-015 -0.865644 0.16582 7.03859 -88.0329 10.2057 -10.5567 0.0015593 -0.00248883 -0.000788628 7.87605e-005 4.10553e-005 1.24965e-005 -3.97569e-016 -7.95139e-016 3.18055e-015 -1.98785e-016 -3.97569e-016 3.18055e-015 -1.98785e-016 0 3.18055e-015 -3.97569e-016 -7.95139e-016 3.18055e-015 0.0129473 0.00231697 -8.70038e-005 9.93923e-017 -7.95139e-016 1.59028e-015 -3.97569e-016 -7.95139e-016 3.18055e-015 0.0163314 0.00303369 -0.000872333 3.97569e-016 7.95139e-016 -3.18055e-015 -3.97569e-016 -7.95139e-016 3.18055e-015 0.0145763 0.00367772 -0.00326275 9.93923e-017 -3.97569e-016 -0 -3.97569e-016 -7.95139e-016 3.18055e-015 -1.98785e-016 -3.97569e-016 3.18055e-015 -1.98785e-016 0 3.18055e-015 3.42485 1.36937 -0.0640303 0.000136572 0.69354 0.00145564 -3.42573 -2.06297 -0.0607933 -3.19502e-024 0 -1.48106e-024 -3.42498 1.36123 0.0639712 -6.769e-005 0.712612 -0.0012277 3.42582 -2.07388 0.0612819 2.55305e-023 0 -2.31416e-026 
0.0636278 1.65824 8.13869 179.999 -89.9981 179.999 -0.11204 8.50986 -0.123997 -0.208732 17.02 -0.234907 -0.208733 17.02 -0.234908 6.56734e-007 17.9983 1.29014e-006 1.44312e-007 8.99856 -1.17913e-008 -19.6866 -1.2672 -9.67005 18.4392 -17.5745 27.593 -32.8615 -23.9404 -55.3308 -31.4819 26.4674 -18.5049 1.76556e-031 -3.18055e-015 3.18055e-015 3.18055e-015 1.59028e-015 -9.54166e-015 -6.36111e-015 1.59028e-015 -0 1.76556e-031 -3.18055e-015 3.18055e-015 -0.0128164 0.00232772 9.70577e-005 1.90833e-014 -9.54166e-015 9.54166e-015 1.76556e-031 -3.18055e-015 3.18055e-015 -0.0160329 0.00298999 0.000856908 2.64834e-031 -4.77083e-015 3.18055e-015 1.76556e-031 -3.18055e-015 3.18055e-015 -0.0125959 0.00311313 0.00283216 0 9.54166e-015 -0 1.76556e-031 -3.18055e-015 3.18055e-015 3.18055e-015 1.59028e-015 -9.54166e-015 -6.36111e-015 1.59028e-015 -0 -1.43854 0.726667 -1.56488 -6.47114 34.3901 -18.4489 29.8861 -72.5917 56.2504 5.47266 1.36249 23.9037 -1.19271e-015 3.18055e-015 7.35503e-015 6.19032e-006 9.68222e-006 7.94286e-008 -2.51721e-007 -7.84212e-008 5.82363e-006 -1.19271e-015 3.18055e-015 7.35503e-015 0.0129364 0.00233064 -8.56408e-005 1.81251e-006 2.18961e-007 5.85017e-006 -1.19271e-015 3.18055e-015 7.35503e-015 0.0163512 0.00304409 -0.000865679 7.53371e-006 5.76529e-006 4.51857e-006 -1.19271e-015 3.18055e-015 7.35503e-015 0.0146202 0.00369698 -0.00326312 -2.38542e-015 1.59028e-015 -2.98177e-015 -1.19271e-015 3.18055e-015 7.35503e-015 6.19032e-006 9.68222e-006 7.94286e-008 -2.51721e-007 -7.84212e-008 5.82363e-006 -35.0918 -30.9662 -23.8045 -91.56 80.9195 88.6936 -7.64908 13.0116 -1.81021 2.68872e-007 -2.09507e-007 2.82157e-006 25.2525 3.25881 1.17637 -1.99712 6.61842 0.531529 8.72427 13.2051 0.917176 4.34713e-006 -4.52515e-007 -2.81998e-006 
0.0636278 1.65824 8.13869 180 -89.9981 180 -0.112748 8.60973 -0.123383 -0.210119 17.2197 -0.23343 -0.210119 17.2198 -0.233431 1.24506e-006 17.4514 1.85039e-006 -1.16953e-007 8.91287 -8.98273e-009 -19.1104 -1.78888 -9.37379 17.9706 -17.4672 27.3983 -33.8269 -24.2306 -55.7703 -31.6002 27.1923 -18.0873 -1.04732e-005 -4.60427e-006 -6.5506e-006 -6.36111e-015 1.11319e-014 1.59028e-015 -3.18055e-015 7.95139e-015 -4.77083e-015 -1.04732e-005 -4.60427e-006 -6.5506e-006 -0.0128328 0.00232622 8.67707e-005 6.36111e-015 9.54166e-015 -4.77083e-015 -1.04732e-005 -4.60427e-006 -6.5506e-006 -0.0160567 0.00300668 0.000859386 9.54166e-015 3.18055e-015 -1.59028e-015 -1.04732e-005 -4.60427e-006 -6.5506e-006 -0.012581 0.00312785 0.00282622 2.43426e-006 -1.18257e-006 -9.1223e-006 -1.04732e-005 -4.60427e-006 -6.5506e-006 -6.36111e-015 1.11319e-014 1.59028e-015 -3.18055e-015 7.95139e-015 -4.77083e-015 -1.43854 0.726624 -1.56488 -6.47111 34.3901 -18.4489 29.8862 -72.5917 56.2505 5.34384 1.23107 23.7856 -1.19271e-015 2.09602e-008 1.59028e-015 1.80194e-006 7.9358e-007 5.85712e-006 1.65544e-006 -2.00437e-007 4.05492e-007 -1.19271e-015 2.09602e-008 1.59028e-015 0.0129669 0.00232149 -8.69108e-005 1.65545e-006 -1.13229e-007 4.05559e-007 -1.19271e-015 2.09602e-008 1.59028e-015 0.0163395 0.00302933 -0.000865828 1.29177e-006 -1.98327e-007 2.5595e-006 -1.19271e-015 2.09602e-008 1.59028e-015 0.0145905 0.00367067 -0.00325891 1.19271e-015 2.10114e-008 -9.74045e-015 -1.19271e-015 2.09602e-008 1.59028e-015 1.80194e-006 7.9358e-007 5.85712e-006 1.65544e-006 -2.00437e-007 4.05492e-007 -35.0918 -30.9662 -23.8045 -91.56 80.9194 88.6936 -7.64905 13.0116 -1.8102 -1.59028e-015 -1.86965e-006 9.54166e-015 25.2525 3.25881 1.17637 -1.99712 6.61842 0.531529 8.72426 13.2051 0.917178 8.60399e-006 -1.91008e-005 2.4146e-006 
0.0636278 1.65824 8.13869 -180 -89.9981 -180 -0.113456 8.70962 -0.122765 -0.211511 17.4195 -0.231942 -0.211512 17.4195 -0.231943 7.92381e-007 16.9036 1.40412e-006 1.092e-007 8.82714 -1.58637e-007 -18.5309 -2.30788 -9.0719 17.5022 -17.3583 27.2046 -34.7978 -24.5143 -56.2167 -31.7254 27.917 -17.6648 4.16115e-006 3.41091e-006 1.04276e-005 4.91946e-006 -2.07205e-006 -1.00481e-005 5.23302e-006 -3.30858e-006 3.28847e-006 4.16115e-006 3.41091e-006 1.04276e-005 -0.0128285 0.00232093 7.43778e-005 4.16795e-006 -2.89573e-006 2.26301e-006 4.16115e-006 3.41091e-006 1.04276e-005 -0.016051 0.00299266 0.000844181 5.2341e-006 -1.88802e-006 3.28868e-006 4.16115e-006 3.41091e-006 1.04276e-005 -0.0125964 0.00311972 0.00282833 9.54166e-015 -1.59028e-015 4.77083e-015 4.16115e-006 3.41091e-006 1.04276e-005 4.91946e-006 -2.07205e-006 -1.00481e-005 5.23302e-006 -3.30858e-006 3.28847e-006 -1.43854 0.726674 -1.56488 -6.4711 34.3901 -18.449 29.8862 -72.5917 56.2505 5.21481 1.09988 23.6672 -3.97569e-016 1.59028e-014 -5.96354e-015 -7.95139e-016 1.74931e-014 2.5842e-015 -2.38542e-015 1.74931e-014 7.7526e-015 -3.97569e-016 1.59028e-014 -5.96354e-015 0.0129421 0.00231106 -7.64496e-005 3.97569e-016 3.18055e-015 5.66536e-015 -3.97569e-016 1.59028e-014 -5.96354e-015 0.0163447 0.00302273 -0.000869151 1.59028e-015 1.59028e-015 3.37934e-015 -3.97569e-016 1.59028e-014 -5.96354e-015 0.0145514 0.00368635 -0.00325558 -1.59028e-015 -1.59028e-015 3.37934e-015 -3.97569e-016 1.59028e-014 -5.96354e-015 -7.95139e-016 1.74931e-014 2.5842e-015 -2.38542e-015 1.74931e-014 7.7526e-015 -35.0918 -30.9662 -23.8045 -91.56 80.9194 88.6936 -7.64905 13.0116 -1.8102 -3.18055e-015 -1.86965e-006 -0 25.2525 3.25881 1.17637 -1.99712 6.61842 0.531529 8.72426 13.2051 0.917178 8.60399e-006 -1.91008e-005 2.4146e-006 
0.0636278 1.65824 8.13869 179.999 -89.9981 179.999 -0.114166 8.80951 -0.122144 -0.212911 17.6193 -0.230444 -0.212911 17.6193 -0.230444 8.27316e-007 16.3546 1.21836e-006 -5.36769e-008 8.74143 3.52106e-007 -17.948 -2.82425 -8.76445 17.0346 -17.2478 27.0119 -35.7743 -24.7913 -56.6698 -31.8576 28.6414 -17.2374 -2.45656e-006 -9.78726e-007 9.2847e-007 9.54166e-015 9.54166e-015 -0 0 0 -0 -2.45656e-006 -9.78726e-007 9.2847e-007 -0.0128201 0.00232825 8.572e-005 6.36111e-015 3.18055e-015 -3.18055e-015 -2.45656e-006 -9.78726e-007 9.2847e-007 -0.0160255 0.00298724 0.000848003 3.18055e-015 -1.59028e-015 3.18055e-015 -2.45656e-006 -9.78726e-007 9.2847e-007 -0.012593 0.00312843 0.00283973 -3.28313e-006 -4.5958e-006 -8.83009e-006 -2.45656e-006 -9.78726e-007 9.2847e-007 9.54166e-015 9.54166e-015 -0 0 0 -0 -1.43854 0.726666 -1.56488 -6.47112 34.3901 -18.449 29.8863 -72.5917 56.2506 5.08543 0.968983 23.5485 2.38542e-015 1.59028e-015 9.93923e-016 -7.72434e-032 -1.59028e-015 -2.78299e-015 3.97569e-016 0 -2.68359e-015 2.38542e-015 1.59028e-015 9.93923e-016 0.0129541 0.00231985 -7.89406e-005 -7.95139e-016 -1.59028e-015 -2.48481e-015 2.38542e-015 1.59028e-015 9.93923e-016 0.0163063 0.00302692 -0.000863625 -1.19271e-015 4.77083e-015 -4.07509e-015 2.38542e-015 1.59028e-015 9.93923e-016 0.0145694 0.00368381 -0.00325346 3.97569e-016 -1.59028e-015 -0 2.38542e-015 1.59028e-015 9.93923e-016 -7.72434e-032 -1.59028e-015 -2.78299e-015 3.97569e-016 0 -2.68359e-015 -35.0918 -30.9662 -23.8045 -91.56 80.9194 88.6936 -7.64905 13.0116 -1.8102 -1.59028e-015 -1.86965e-006 -0 25.2525 3.25881 1.17637 -1.99712 6.61842 0.531529 8.72426 13.2051 0.917178 8.60399e-006 -1.91008e-005 2.4146e-006 
